<svg width="157" height="18" viewBox="0 0 157 18" fill="none" xmlns="http://www.w3.org/2000/svg">
<path d="M16.1289 4.87891C16.3958 4.87891 16.5293 4.96029 16.5293 5.12305C16.5293 5.25977 16.4056 5.3737 16.1582 5.46484C15.9108 5.54948 15.7285 5.63086 15.6113 5.70898C15.5007 5.78711 15.3932 5.90104 15.2891 6.05078C15.1198 6.29167 14.8822 6.77995 14.5762 7.51562L11.8125 13.9609C11.7344 14.1497 11.6497 14.2441 11.5586 14.2441C11.4219 14.2441 11.3145 14.1497 11.2363 13.9609L8.58984 7.81836L6.05078 13.9609C5.97266 14.1497 5.88802 14.2441 5.79688 14.2441C5.66016 14.2441 5.55273 14.1497 5.47461 13.9609L2.48633 6.75391C2.31706 6.3112 2.18034 6.02799 2.07617 5.9043C1.90039 5.68945 1.66927 5.54948 1.38281 5.48438C1.10286 5.41276 0.962891 5.28906 0.962891 5.11328C0.962891 5.05469 0.998698 5.0026 1.07031 4.95703C1.13542 4.90495 1.23307 4.87891 1.36328 4.87891L2.87695 4.98633C3.26758 4.98633 3.55729 4.97331 3.74609 4.94727C4.07812 4.90169 4.35156 4.87891 4.56641 4.87891C5.00911 4.87891 5.23047 4.97331 5.23047 5.16211C5.23047 5.35742 4.97005 5.4681 4.44922 5.49414C4.13021 5.50716 3.95768 5.59505 3.93164 5.75781C3.92513 5.80339 3.92188 5.85872 3.92188 5.92383C3.92188 6.07357 3.99023 6.33398 4.12695 6.70508L6.1582 11.5977L8.12109 6.74414L7.90625 6.23633C7.75 5.87174 7.58724 5.64388 7.41797 5.55273C7.35286 5.52018 7.27799 5.48763 7.19336 5.45508C6.94596 5.36393 6.82227 5.24674 6.82227 5.10352C6.82227 4.95378 6.96875 4.87891 7.26172 4.87891L8.51172 4.98633C8.91536 4.98633 9.2181 4.97331 9.41992 4.94727C9.77148 4.90169 10.1133 4.87891 10.4453 4.87891C10.7839 4.87891 10.9531 4.97331 10.9531 5.16211C10.9531 5.35742 10.6927 5.4681 10.1719 5.49414C9.76823 5.51367 9.56641 5.64714 9.56641 5.89453C9.56641 6.14844 9.69661 6.5651 9.95703 7.14453L11.9492 11.7148L13.3066 8.33594C13.7363 7.25521 13.9642 6.60742 13.9902 6.39258C14.0163 6.17122 14.0293 6.01172 14.0293 5.91406C14.0293 5.66667 13.86 5.52995 13.5215 5.50391C13.1829 5.47135 12.9551 5.43229 12.8379 5.38672C12.7272 5.34115 12.6719 5.26628 12.6719 5.16211C12.6719 4.97331 12.8932 4.87891 13.3359 4.87891L14.9961 4.97656L16.1289 4.87891ZM16.7148 9.66406C16.7148 9.03255 16.8288 8.42057 17.0566 7.82812C17.2845 7.23568 17.6068 6.71484 18.0234 6.26562C18.9349 5.28255 20.071 4.79102 21.4316 4.79102C22.9421 4.79102 24.1042 5.24349 24.918 6.14844C25.6536 6.96875 26.0215 8.0332 26.0215 9.3418C26.0215 10.6634 25.582 11.806 24.7031 12.7695C23.8047 13.7526 22.6719 14.2441 21.3047 14.2441C19.7943 14.2441 18.6354 13.7917 17.8281 12.8867C17.0859 12.0664 16.7148 10.9922 16.7148 9.66406ZM18.3652 9.25391C18.3652 9.89193 18.4531 10.4876 18.6289 11.041C18.8047 11.5944 19.0456 12.0534 19.3516 12.418C19.957 13.1602 20.722 13.5312 21.6465 13.5312C22.4668 13.5312 23.1341 13.2057 23.6484 12.5547C24.1823 11.8776 24.4492 11.0052 24.4492 9.9375C24.4492 8.52474 24.1237 7.41797 23.4727 6.61719C22.8607 5.88151 22.0924 5.51367 21.168 5.51367C20.3477 5.51367 19.6803 5.83919 19.166 6.49023C18.6322 7.16732 18.3652 8.08854 18.3652 9.25391ZM27.8574 14.1465C27.4212 14.1465 27.2031 14.026 27.2031 13.7852C27.2031 13.5964 27.3236 13.502 27.5645 13.502L28.0527 13.5508C28.2025 13.5508 28.3262 13.5247 28.4238 13.4727C28.5215 13.4141 28.5964 13.2936 28.6484 13.1113C28.7526 12.7793 28.8047 12.0436 28.8047 10.9043V7.98438C28.8047 7.32031 28.7624 6.9069 28.6777 6.74414C28.5996 6.57487 28.502 6.46094 28.3848 6.40234C28.2741 6.33724 28.0885 6.28516 27.8281 6.24609C27.5742 6.20703 27.4473 6.10612 27.4473 5.94336C27.4473 5.79362 27.6133 5.6862 27.9453 5.62109C28.7201 5.45833 29.2539 5.29557 29.5469 5.13281C29.944 4.90495 30.2142 4.79102 30.3574 4.79102C30.5072 4.79102 30.582 4.86589 30.582 5.01562C30.582 5.08724 30.5658 5.16211 30.5332 5.24023C30.5072 5.31836 30.4779 5.41276 30.4453 5.52344C30.3932 5.74479 30.3542 6.16146 30.3281 6.77344C30.8945 5.82292 31.5781 5.23047 32.3789 4.99609C32.6133 4.92448 32.8737 4.88867 33.1602 4.88867C33.4531 4.88867 33.7103 4.99284 33.9316 5.20117C34.1595 5.40951 34.2734 5.63086 34.2734 5.86523C34.2734 6.09961 34.2474 6.27214 34.1953 6.38281C34.1432 6.49349 34.0781 6.58789 34 6.66602C33.8307 6.83529 33.6777 6.91992 33.541 6.91992C33.4108 6.91992 33.3099 6.88737 33.2383 6.82227C33.1667 6.75065 33.0853 6.6237 32.9941 6.44141C32.8314 6.11589 32.6491 5.95312 32.4473 5.95312C32.2454 5.95312 32.0534 5.9987 31.8711 6.08984C31.6888 6.17448 31.5065 6.30469 31.3242 6.48047C30.9271 6.85156 30.5918 7.35612 30.3184 7.99414V10.9043C30.3184 12.1413 30.3509 12.8704 30.416 13.0918C30.4876 13.3066 30.5723 13.4368 30.6699 13.4824C30.7741 13.5215 30.9141 13.541 31.0898 13.541L31.959 13.4629C32.0892 13.4629 32.1934 13.4954 32.2715 13.5605C32.3496 13.6191 32.3887 13.694 32.3887 13.7852C32.3887 14.026 32.151 14.1465 31.6758 14.1465L29.6152 14C29.2832 14 28.9674 14.0228 28.668 14.0684C28.375 14.1204 28.1048 14.1465 27.8574 14.1465ZM35.6016 14.1465C35.1719 14.1465 34.957 14.026 34.957 13.7852C34.957 13.5964 35.0775 13.502 35.3184 13.502L35.8066 13.5508C35.9564 13.5508 36.0801 13.5247 36.1777 13.4727C36.2754 13.4141 36.3503 13.2936 36.4023 13.1113C36.5065 12.7793 36.5586 12.0436 36.5586 10.9043V3.22852C36.5586 2.61003 36.5098 2.20964 36.4121 2.02734C36.3145 1.83854 36.2103 1.71159 36.0996 1.64648C35.9889 1.58138 35.8099 1.5293 35.5625 1.49023C35.3216 1.45117 35.2012 1.35026 35.2012 1.1875C35.2012 1.03776 35.3672 0.930339 35.6992 0.865234C36.474 0.702474 37.0078 0.539714 37.3008 0.376953C37.6979 0.149089 37.9681 0.0351562 38.1113 0.0351562C38.2611 0.0351562 38.3359 0.110026 38.3359 0.259766C38.3359 0.33138 38.3229 0.40625 38.2969 0.484375C38.1602 0.835938 38.0885 1.2819 38.082 1.82227C38.0755 2.36263 38.0723 2.80534 38.0723 3.15039V8.99023L41.002 6.19727C41.1712 6.04102 41.2559 5.91732 41.2559 5.82617C41.2559 5.72852 41.2168 5.6569 41.1387 5.61133C41.0605 5.55924 40.9727 5.51042 40.875 5.46484C40.6276 5.35417 40.5039 5.23698 40.5039 5.11328C40.5039 4.95052 40.6471 4.86914 40.9336 4.86914L42.0664 4.9668L43.7266 4.86914C44.1497 4.86914 44.3613 4.96354 44.3613 5.15234C44.3613 5.32161 44.1823 5.42253 43.8242 5.45508C43.4466 5.49414 43.1048 5.6276 42.7988 5.85547C42.4928 6.07682 42.2357 6.27865 42.0273 6.46094L40.0547 8.18945L43.1309 12.8086C43.4238 13.2839 43.8242 13.5215 44.332 13.5215C44.6315 13.5215 44.8138 13.5443 44.8789 13.5898C44.9505 13.6289 44.9863 13.7038 44.9863 13.8145C44.9863 14.0358 44.7943 14.1465 44.4102 14.1465L43.2773 14.0391L42.4863 14.1465C42.278 14.1465 42.112 14.0749 41.9883 13.9316C41.8711 13.7884 41.7604 13.6517 41.6562 13.5215L38.8535 9.25391L38.0723 9.94727V10.9043C38.0723 12.4408 38.1699 13.2904 38.3652 13.4531C38.4368 13.5182 38.528 13.5508 38.6387 13.5508L39.127 13.502C39.3613 13.502 39.4785 13.5964 39.4785 13.7852C39.4785 14.026 39.2637 14.1465 38.834 14.1465C38.6452 14.1465 38.4303 14.1204 38.1895 14.0684C37.9486 14.0228 37.6589 14 37.3203 14C36.9883 14 36.679 14.0228 36.3926 14.0684C36.1126 14.1204 35.849 14.1465 35.6016 14.1465ZM56.9492 13.3066C57.1901 13.3066 57.5352 13.1862 57.9844 12.9453C58.4336 12.7044 58.821 12.4115 59.1465 12.0664C59.4785 11.7214 59.7552 11.3405 59.9766 10.9238C60.4128 10.084 60.6309 9.23112 60.6309 8.36523C60.6309 7.49935 60.4876 6.75065 60.2012 6.11914C59.9147 5.48112 59.5143 4.93099 59 4.46875C57.8932 3.49219 56.4772 3.00391 54.752 3.00391C53.4629 3.00391 52.2422 3.34896 51.0898 4.03906C49.9831 4.70312 49.0977 5.58854 48.4336 6.69531C47.763 7.83464 47.4277 9.05534 47.4277 10.3574C47.4277 11.9329 47.776 13.2773 48.4727 14.3906C49.0716 15.3477 49.8919 16.0833 50.9336 16.5977C51.8385 17.0404 52.7272 17.2617 53.5996 17.2617C54.472 17.2617 55.1882 17.1348 55.748 16.8809C56.3145 16.627 56.8027 16.3014 57.2129 15.9043C57.3691 15.748 57.5124 15.6699 57.6426 15.6699C57.7793 15.6699 57.8965 15.6862 57.9941 15.7188C58.0983 15.7578 58.1862 15.8066 58.2578 15.8652C58.4271 15.9954 58.5117 16.1387 58.5117 16.2949C58.5117 16.4577 58.3783 16.64 58.1113 16.8418C57.8509 17.0436 57.4701 17.2422 56.9688 17.4375C55.9987 17.8086 54.8431 17.9941 53.502 17.9941C51.5488 17.9941 49.8626 17.3724 48.4434 16.1289C46.9264 14.7878 46.168 13.0462 46.168 10.9043C46.168 9.26367 46.5716 7.76628 47.3789 6.41211C48.1536 5.11654 49.2214 4.0944 50.582 3.3457C51.9557 2.59049 53.4727 2.21289 55.1328 2.21289C57.1315 2.21289 58.7461 2.73698 59.9766 3.78516C61.2201 4.83333 61.8418 6.20378 61.8418 7.89648C61.8418 9.61523 61.2233 11.1094 59.9863 12.3789C59.5046 12.8737 58.987 13.2578 58.4336 13.5312C57.4831 14.0065 56.7051 14.2441 56.0996 14.2441C55.8066 14.2441 55.5788 14.1497 55.416 13.9609C55.2598 13.7721 55.1686 13.4499 55.1426 12.9941C54.4525 13.8275 53.6061 14.2441 52.6035 14.2441C51.8548 14.2441 51.2656 13.9609 50.8359 13.3945C50.4128 12.8346 50.2012 12.0892 50.2012 11.1582C50.2012 9.85612 50.6732 8.65495 51.6172 7.55469C52.2031 6.86458 52.903 6.3763 53.7168 6.08984C54.1204 5.95312 54.5404 5.88477 54.9766 5.88477C55.6992 5.88477 56.3372 6.10286 56.8906 6.53906C57.0078 6.50651 57.1445 6.41862 57.3008 6.27539C57.5938 6.01497 57.7728 5.88477 57.8379 5.88477C57.903 5.88477 57.9616 5.91081 58.0137 5.96289C58.0723 6.01497 58.1016 6.08008 58.1016 6.1582C58.1016 6.22982 58.0918 6.30794 58.0723 6.39258C58.0527 6.4707 58.0169 6.5944 57.9648 6.76367C57.8542 7.16732 57.7077 7.73698 57.5254 8.47266C57.3431 9.20182 57.1966 9.80078 57.0859 10.2695C56.9818 10.7318 56.8971 11.1224 56.832 11.4414C56.7018 12.0339 56.6367 12.4928 56.6367 12.8184C56.6367 13.1439 56.7409 13.3066 56.9492 13.3066ZM56.2266 7.4082C55.862 6.92643 55.3639 6.68555 54.7324 6.68555C53.5996 6.68555 52.7826 7.44401 52.2812 8.96094C52.099 9.53385 52.0078 10.1751 52.0078 10.8848C52.0078 11.5879 52.1315 12.1641 52.3789 12.6133C52.6263 13.056 52.9583 13.2773 53.375 13.2773C54.0391 13.2773 54.6478 12.8184 55.2012 11.9004C55.2663 11.4056 55.6081 9.9082 56.2266 7.4082ZM63.9414 14C63.7201 14 63.6094 13.9349 63.6094 13.8047C63.6094 13.7266 63.6549 13.6224 63.7461 13.4922L69.2344 5.71875H68.0137C66.6986 5.71875 65.8197 5.83594 65.377 6.07031C65.0579 6.2526 64.8333 6.51628 64.7031 6.86133C64.5729 7.19987 64.4232 7.36914 64.2539 7.36914C64.0846 7.36914 64 7.27474 64 7.08594C64 7.0599 64.0163 6.97852 64.0488 6.8418C64.0879 6.69857 64.1302 6.5293 64.1758 6.33398C64.2865 5.80664 64.3418 5.41276 64.3418 5.15234C64.3418 4.88542 64.4134 4.75195 64.5566 4.75195C64.6283 4.75195 64.7031 4.76823 64.7812 4.80078C65.1328 4.93099 65.5755 4.99935 66.1094 5.00586C66.6497 5.01237 67.0924 5.01562 67.4375 5.01562H71.0801C71.3014 5.01562 71.4121 5.09049 71.4121 5.24023C71.4121 5.31836 71.3568 5.43555 71.2461 5.5918L65.8945 13.2969H67.4668C69.0358 13.2969 70.0124 13.1536 70.3965 12.8672C70.6374 12.6914 70.8327 12.4538 70.9824 12.1543C71.1322 11.8483 71.2363 11.666 71.2949 11.6074C71.3535 11.5423 71.4284 11.5098 71.5195 11.5098C71.6497 11.5098 71.7148 11.5911 71.7148 11.7539C71.7148 11.9036 71.666 12.1217 71.5684 12.4082C71.4772 12.6882 71.4219 12.9225 71.4023 13.1113C71.3893 13.2936 71.3763 13.4596 71.3633 13.6094C71.3307 13.9674 71.2428 14.1465 71.0996 14.1465C70.9564 14.1465 70.8099 14.1367 70.6602 14.1172C70.5104 14.1042 70.3379 14.0911 70.1426 14.0781C69.5566 14.026 69.013 14 68.5117 14H63.9414ZM82.125 12.6914C82.3138 12.6914 82.4082 12.7793 82.4082 12.9551C82.4082 13.1243 82.2194 13.2871 81.8418 13.4434C81.4642 13.5996 81.2005 13.7428 81.0508 13.873C80.901 13.9967 80.7904 14.0879 80.7188 14.1465C80.6471 14.2116 80.5625 14.2441 80.4648 14.2441C80.2695 14.2441 80.1068 14.1628 79.9766 14C79.8464 13.8372 79.6706 13.4889 79.4492 12.9551C79.0781 13.3783 78.6257 13.7005 78.0918 13.9219C77.5645 14.1367 77.0404 14.2441 76.5195 14.2441C75.5365 14.2441 74.7747 13.9935 74.2344 13.4922C73.694 12.9909 73.4238 12.304 73.4238 11.4316C73.4238 10.5592 73.8307 9.85286 74.6445 9.3125C75.4648 8.76562 76.5098 8.49219 77.7793 8.49219C78.1569 8.49219 78.6549 8.55729 79.2734 8.6875V7.92578C79.2734 6.2526 78.5671 5.41602 77.1543 5.41602C76.4056 5.41602 75.8555 5.76107 75.5039 6.45117C75.1979 7.06966 74.8984 7.37891 74.6055 7.37891C74.3906 7.37891 74.2018 7.31706 74.0391 7.19336C73.8828 7.06966 73.8047 6.91341 73.8047 6.72461C73.8047 6.53581 73.9023 6.32747 74.0977 6.09961C74.293 5.86523 74.5534 5.65365 74.8789 5.46484C75.6471 5.01562 76.4902 4.79102 77.4082 4.79102C79.0358 4.79102 80.0872 5.32161 80.5625 6.38281C80.7383 6.76042 80.8262 7.22266 80.8262 7.76953V11.666C80.8262 12.1673 80.875 12.4896 80.9727 12.6328C81.0703 12.776 81.207 12.8477 81.3828 12.8477C81.5586 12.8477 81.7018 12.8216 81.8125 12.7695C81.9232 12.7174 82.0273 12.6914 82.125 12.6914ZM79.2734 9.5957C78.8047 9.32878 78.2122 9.19531 77.4961 9.19531C76.7799 9.19531 76.2038 9.37435 75.7676 9.73242C75.3379 10.0905 75.123 10.5723 75.123 11.1777C75.123 11.7767 75.2891 12.278 75.6211 12.6816C75.9531 13.0788 76.3796 13.2773 76.9004 13.2773C78.0137 13.2773 78.8145 12.9128 79.3027 12.1836C79.2832 12.0013 79.2734 11.7995 79.2734 11.5781V9.5957ZM83.6777 14.1465C83.2415 14.1465 83.0234 14.026 83.0234 13.7852C83.0234 13.5964 83.1439 13.502 83.3848 13.502L83.873 13.5508C84.0228 13.5508 84.1465 13.5247 84.2441 13.4727C84.3418 13.4141 84.4167 13.2936 84.4688 13.1113C84.5729 12.7793 84.625 12.0436 84.625 10.9043V7.98438C84.625 7.32031 84.5827 6.9069 84.498 6.74414C84.4199 6.57487 84.3223 6.46094 84.2051 6.40234C84.0944 6.33724 83.9089 6.28516 83.6484 6.24609C83.3945 6.20703 83.2676 6.10612 83.2676 5.94336C83.2676 5.79362 83.4336 5.6862 83.7656 5.62109C84.5404 5.45833 85.0742 5.29557 85.3672 5.13281C85.7643 4.90495 86.0345 4.79102 86.1777 4.79102C86.3275 4.79102 86.4023 4.86589 86.4023 5.01562C86.4023 5.08724 86.3861 5.16211 86.3535 5.24023C86.3275 5.31836 86.2982 5.41276 86.2656 5.52344C86.2135 5.74479 86.1745 6.16146 86.1484 6.77344C86.7148 5.82292 87.3984 5.23047 88.1992 4.99609C88.4336 4.92448 88.694 4.88867 88.9805 4.88867C89.2734 4.88867 89.5306 4.99284 89.752 5.20117C89.9798 5.40951 90.0938 5.63086 90.0938 5.86523C90.0938 6.09961 90.0677 6.27214 90.0156 6.38281C89.9635 6.49349 89.8984 6.58789 89.8203 6.66602C89.651 6.83529 89.498 6.91992 89.3613 6.91992C89.2311 6.91992 89.1302 6.88737 89.0586 6.82227C88.987 6.75065 88.9056 6.6237 88.8145 6.44141C88.6517 6.11589 88.4694 5.95312 88.2676 5.95312C88.0658 5.95312 87.8737 5.9987 87.6914 6.08984C87.5091 6.17448 87.3268 6.30469 87.1445 6.48047C86.7474 6.85156 86.4121 7.35612 86.1387 7.99414V10.9043C86.1387 12.1413 86.1712 12.8704 86.2363 13.0918C86.3079 13.3066 86.3926 13.4368 86.4902 13.4824C86.5944 13.5215 86.7344 13.541 86.9102 13.541L87.7793 13.4629C87.9095 13.4629 88.0137 13.4954 88.0918 13.5605C88.1699 13.6191 88.209 13.694 88.209 13.7852C88.209 14.026 87.9714 14.1465 87.4961 14.1465L85.4355 14C85.1035 14 84.7878 14.0228 84.4883 14.0684C84.1953 14.1204 83.9251 14.1465 83.6777 14.1465ZM96.5586 5.75781C96.5586 5.93359 96.4544 6.02148 96.2461 6.02148L93.4727 5.99219V11.4023C93.4727 12.4115 93.7168 13.0104 94.2051 13.1992C94.3548 13.2578 94.5306 13.2871 94.7324 13.2871C94.9342 13.2871 95.1165 13.2546 95.2793 13.1895C95.4486 13.1178 95.5983 13.043 95.7285 12.9648C95.8587 12.8867 95.9694 12.8151 96.0605 12.75C96.1517 12.6784 96.2363 12.6426 96.3145 12.6426C96.3991 12.6426 96.474 12.6882 96.5391 12.7793C96.6042 12.8704 96.6367 12.9616 96.6367 13.0527C96.6367 13.2806 96.347 13.554 95.7676 13.873C95.3249 14.1204 94.7682 14.2441 94.0977 14.2441C93.4271 14.2441 92.903 14.0065 92.5254 13.5312C92.1478 13.0495 91.959 12.3854 91.959 11.5391V5.96289H91.3633C90.8945 5.96289 90.6602 5.84245 90.6602 5.60156C90.6602 5.42578 90.7904 5.30534 91.0508 5.24023C91.3112 5.17513 91.5358 5.0612 91.7246 4.89844C91.9134 4.72917 92.0664 4.54036 92.1836 4.33203C92.3073 4.11719 92.4049 3.89583 92.4766 3.66797C92.5482 3.4401 92.6133 3.23177 92.6719 3.04297C92.8151 2.61328 92.9779 2.39844 93.1602 2.39844C93.3685 2.39844 93.4727 2.58398 93.4727 2.95508V5.16211L96.2168 5.10352C96.3535 5.10352 96.4609 5.26628 96.5391 5.5918C96.5521 5.66341 96.5586 5.71875 96.5586 5.75781ZM98.1309 14.1465C97.6947 14.1465 97.4766 14.026 97.4766 13.7852C97.4766 13.5964 97.597 13.502 97.8379 13.502L98.3262 13.5508C98.4759 13.5508 98.5996 13.5247 98.6973 13.4727C98.7949 13.4141 98.8698 13.2936 98.9219 13.1113C99.026 12.7793 99.0781 12.0436 99.0781 10.9043V7.98438C99.0781 7.32031 99.0358 6.9069 98.9512 6.74414C98.873 6.57487 98.7754 6.46094 98.6582 6.40234C98.5475 6.33724 98.362 6.28516 98.1016 6.24609C97.8477 6.20703 97.7207 6.10612 97.7207 5.94336C97.7207 5.79362 97.8867 5.6862 98.2188 5.62109C98.9935 5.45833 99.5273 5.29557 99.8203 5.13281C100.217 4.90495 100.488 4.79102 100.631 4.79102C100.781 4.79102 100.855 4.86589 100.855 5.01562C100.855 5.08724 100.839 5.16211 100.807 5.24023C100.781 5.31836 100.751 5.41276 100.719 5.52344C100.667 5.74479 100.628 6.16146 100.602 6.77344C101.168 5.82292 101.852 5.23047 102.652 4.99609C102.887 4.92448 103.147 4.88867 103.434 4.88867C103.727 4.88867 103.984 4.99284 104.205 5.20117C104.433 5.40951 104.547 5.63086 104.547 5.86523C104.547 6.09961 104.521 6.27214 104.469 6.38281C104.417 6.49349 104.352 6.58789 104.273 6.66602C104.104 6.83529 103.951 6.91992 103.814 6.91992C103.684 6.91992 103.583 6.88737 103.512 6.82227C103.44 6.75065 103.359 6.6237 103.268 6.44141C103.105 6.11589 102.923 5.95312 102.721 5.95312C102.519 5.95312 102.327 5.9987 102.145 6.08984C101.962 6.17448 101.78 6.30469 101.598 6.48047C101.201 6.85156 100.865 7.35612 100.592 7.99414V10.9043C100.592 12.1413 100.624 12.8704 100.689 13.0918C100.761 13.3066 100.846 13.4368 100.943 13.4824C101.048 13.5215 101.188 13.541 101.363 13.541L102.232 13.4629C102.363 13.4629 102.467 13.4954 102.545 13.5605C102.623 13.6191 102.662 13.694 102.662 13.7852C102.662 14.026 102.424 14.1465 101.949 14.1465L99.8887 14C99.5566 14 99.2409 14.0228 98.9414 14.0684C98.6484 14.1204 98.3783 14.1465 98.1309 14.1465ZM106.715 12.9062C106.337 12.4831 106.044 11.985 105.836 11.4121C105.634 10.8392 105.533 10.2044 105.533 9.50781C105.533 8.80469 105.654 8.16016 105.895 7.57422C106.135 6.98828 106.467 6.48698 106.891 6.07031C107.77 5.20443 108.854 4.77148 110.143 4.77148C111.21 4.77148 112.073 5.12305 112.73 5.82617C113.355 6.50326 113.668 7.33984 113.668 8.33594C113.668 8.66146 113.622 8.88607 113.531 9.00977C113.447 9.12695 113.339 9.19857 113.209 9.22461C113.079 9.24414 112.9 9.26367 112.672 9.2832C112.444 9.29622 112.167 9.3125 111.842 9.33203C111.516 9.35156 111.152 9.37109 110.748 9.39062C110.351 9.41016 109.944 9.43294 109.527 9.45898C108.57 9.51758 107.802 9.57617 107.223 9.63477C107.366 11.3861 108.036 12.5221 109.234 13.043C109.625 13.2122 110.042 13.2969 110.484 13.2969C111.422 13.2969 112.164 13.0234 112.711 12.4766C112.945 12.2422 113.124 12.125 113.248 12.125C113.482 12.125 113.6 12.265 113.6 12.5449C113.6 12.6882 113.502 12.8607 113.307 13.0625C113.111 13.2643 112.831 13.4727 112.467 13.6875C111.822 14.0586 111.07 14.2441 110.211 14.2441C109.352 14.2441 108.648 14.127 108.102 13.8926C107.561 13.6517 107.099 13.3229 106.715 12.9062ZM107.203 8.91211C110.257 8.75586 111.865 8.58984 112.027 8.41406C112.086 8.34896 112.115 8.1569 112.115 7.83789C112.115 7.51888 112.053 7.20964 111.93 6.91016C111.806 6.60417 111.64 6.34375 111.432 6.12891C111.002 5.69271 110.468 5.47461 109.83 5.47461C109.107 5.47461 108.499 5.77734 108.004 6.38281C107.483 7.01432 107.216 7.85742 107.203 8.91211ZM116.744 14.2441C116.399 14.2441 116.129 14.14 115.934 13.9316C115.738 13.7168 115.641 13.4889 115.641 13.248C115.641 13.0007 115.67 12.8118 115.729 12.6816C115.794 12.5449 115.882 12.4277 115.992 12.3301C116.214 12.1283 116.484 12.0273 116.803 12.0273C117.128 12.0273 117.389 12.1315 117.584 12.3398C117.786 12.5482 117.887 12.7695 117.887 13.0039C117.887 13.2383 117.861 13.4238 117.809 13.5605C117.757 13.6908 117.678 13.8079 117.574 13.9121C117.366 14.1335 117.089 14.2441 116.744 14.2441ZM119.967 9.52734C119.967 8.83724 120.09 8.19922 120.338 7.61328C120.592 7.02083 120.934 6.51628 121.363 6.09961C122.275 5.22721 123.424 4.79102 124.811 4.79102C125.631 4.81706 126.344 5.00911 126.949 5.36719C127.568 5.72526 127.89 6.16471 127.916 6.68555C127.916 6.96549 127.73 7.15104 127.359 7.24219C127.262 7.26172 127.174 7.27148 127.096 7.27148C126.796 7.27148 126.552 7.06641 126.363 6.65625C125.992 5.88151 125.364 5.49414 124.479 5.49414C123.697 5.49414 123.043 5.81641 122.516 6.46094C121.956 7.14453 121.676 8.04622 121.676 9.16602C121.676 10.4095 121.965 11.4089 122.545 12.1641C123.15 12.9583 123.977 13.3555 125.025 13.3555C125.742 13.3555 126.37 13.082 126.91 12.5352C127.145 12.3008 127.32 12.1836 127.438 12.1836C127.678 12.1836 127.799 12.304 127.799 12.5449C127.799 12.7793 127.568 13.0658 127.105 13.4043C126.357 13.9642 125.436 14.2441 124.342 14.2441C123.033 14.2441 121.969 13.7982 121.148 12.9062C120.361 12.0404 119.967 10.9141 119.967 9.52734ZM129.176 9.66406C129.176 9.03255 129.29 8.42057 129.518 7.82812C129.745 7.23568 130.068 6.71484 130.484 6.26562C131.396 5.28255 132.532 4.79102 133.893 4.79102C135.403 4.79102 136.565 5.24349 137.379 6.14844C138.115 6.96875 138.482 8.0332 138.482 9.3418C138.482 10.6634 138.043 11.806 137.164 12.7695C136.266 13.7526 135.133 14.2441 133.766 14.2441C132.255 14.2441 131.096 13.7917 130.289 12.8867C129.547 12.0664 129.176 10.9922 129.176 9.66406ZM130.826 9.25391C130.826 9.89193 130.914 10.4876 131.09 11.041C131.266 11.5944 131.507 12.0534 131.812 12.418C132.418 13.1602 133.183 13.5312 134.107 13.5312C134.928 13.5312 135.595 13.2057 136.109 12.5547C136.643 11.8776 136.91 11.0052 136.91 9.9375C136.91 8.52474 136.585 7.41797 135.934 6.61719C135.322 5.88151 134.553 5.51367 133.629 5.51367C132.809 5.51367 132.141 5.83919 131.627 6.49023C131.093 7.16732 130.826 8.08854 130.826 9.25391ZM140.387 14.1465C139.957 14.1465 139.742 14.026 139.742 13.7852C139.742 13.5964 139.863 13.502 140.104 13.502L140.592 13.5508C140.742 13.5508 140.865 13.5247 140.963 13.4727C141.061 13.4141 141.135 13.2936 141.188 13.1113C141.292 12.7793 141.344 12.0436 141.344 10.9043V7.98438C141.344 7.33333 141.301 6.92318 141.217 6.75391C141.132 6.57812 141.031 6.46094 140.914 6.40234C140.803 6.33724 140.621 6.28516 140.367 6.24609C140.113 6.20703 139.986 6.10612 139.986 5.94336C139.986 5.79362 140.152 5.6862 140.484 5.62109C141.259 5.45833 141.793 5.29557 142.086 5.13281C142.483 4.90495 142.753 4.79102 142.896 4.79102C143.046 4.79102 143.121 4.86589 143.121 5.01562C143.121 5.08724 143.105 5.16211 143.072 5.24023C143.046 5.31836 143.017 5.41276 142.984 5.52344C142.939 5.69922 142.903 6.03776 142.877 6.53906C143.456 5.69922 144.182 5.1556 145.055 4.9082C145.335 4.83008 145.615 4.79102 145.895 4.79102C147.418 4.79102 148.359 5.4681 148.717 6.82227C149.296 5.85872 150.061 5.23047 151.012 4.9375C151.311 4.83984 151.614 4.79102 151.92 4.79102C152.87 4.79102 153.606 5.06771 154.127 5.62109C154.648 6.17448 154.908 7.03711 154.908 8.20898V10.9043C154.908 12.0436 154.947 12.7435 155.025 13.0039C155.104 13.2578 155.191 13.4141 155.289 13.4727C155.387 13.5247 155.51 13.5508 155.66 13.5508L156.148 13.502C156.389 13.502 156.51 13.5964 156.51 13.7852C156.51 14.026 156.292 14.1465 155.855 14.1465C155.608 14.1465 155.344 14.1204 155.064 14.0684C154.785 14.0228 154.482 14 154.156 14C153.837 14 153.531 14.0228 153.238 14.0684C152.952 14.1204 152.685 14.1465 152.438 14.1465C152.001 14.1465 151.783 14.026 151.783 13.7852C151.783 13.5964 151.904 13.502 152.145 13.502L152.633 13.5508C152.783 13.5508 152.906 13.5247 153.004 13.4727C153.102 13.4141 153.18 13.2936 153.238 13.1113C153.342 12.7858 153.395 12.0501 153.395 10.9043V8.67773C153.395 7.25195 153.01 6.38281 152.242 6.07031C151.995 5.97266 151.728 5.92383 151.441 5.92383C151.161 5.92383 150.898 5.97591 150.65 6.08008C150.403 6.17773 150.172 6.32422 149.957 6.51953C149.482 6.94271 149.124 7.5026 148.883 8.19922V10.9043C148.883 12.0436 148.922 12.7435 149 13.0039C149.078 13.2578 149.166 13.4141 149.264 13.4727C149.361 13.5247 149.485 13.5508 149.635 13.5508L150.123 13.502C150.364 13.502 150.484 13.5964 150.484 13.7852C150.484 14.026 150.266 14.1465 149.83 14.1465C149.583 14.1465 149.319 14.1204 149.039 14.0684C148.759 14.0228 148.456 14 148.131 14C147.812 14 147.506 14.0228 147.213 14.0684C146.926 14.1204 146.66 14.1465 146.412 14.1465C145.976 14.1465 145.758 14.026 145.758 13.7852C145.758 13.5964 145.878 13.502 146.119 13.502L146.607 13.5508C146.757 13.5508 146.881 13.5247 146.979 13.4727C147.076 13.4141 147.154 13.2936 147.213 13.1113C147.317 12.7858 147.369 12.0501 147.369 10.9043V8.67773C147.369 7.25195 146.988 6.38281 146.227 6.07031C145.973 5.97266 145.702 5.92383 145.416 5.92383C145.136 5.92383 144.872 5.97591 144.625 6.08008C144.378 6.17773 144.143 6.32422 143.922 6.51953C143.453 6.94271 143.098 7.5026 142.857 8.19922V10.9043C142.857 12.0436 142.896 12.7435 142.975 13.0039C143.053 13.2578 143.141 13.4141 143.238 13.4727C143.336 13.5247 143.46 13.5508 143.609 13.5508L144.098 13.502C144.339 13.502 144.459 13.5964 144.459 13.7852C144.459 14.026 144.244 14.1465 143.814 14.1465C143.567 14.1465 143.31 14.1204 143.043 14.0684C142.776 14.0228 142.47 14 142.125 14C141.78 14 141.464 14.0228 141.178 14.0684C140.898 14.1204 140.634 14.1465 140.387 14.1465Z" fill="black"/>
</svg>
